<svg width="44" height="44" viewBox="0 0 44 44" fill="none" xmlns="http://www.w3.org/2000/svg">
<rect x="20.0781" y="27.7607" width="3.84127" height="3.84127" transform="rotate(-180 20.0781 27.7607)" fill="#131200"/>
<rect width="3.84127" height="3.84127" transform="matrix(1 0 0 -1 23.918 27.7607)" fill="#131200"/>
<rect x="23.918" y="31.6035" width="3.84127" height="3.84127" transform="rotate(-180 23.918 31.6035)" fill="#131200"/>
<rect x="16.2363" y="23.9209" width="3.84127" height="3.84127" transform="rotate(-180 16.2363 23.9209)" fill="#131200"/>
<rect width="3.84127" height="3.84127" transform="matrix(1 0 0 -1 27.7598 23.9209)" fill="#131200"/>
<rect x="12.3945" y="20.0791" width="3.84127" height="3.84127" transform="rotate(-180 12.3945 20.0791)" fill="#131200"/>
<rect width="3.84127" height="3.84127" transform="matrix(1 0 0 -1 31.6016 20.0791)" fill="#131200"/>
<rect x="8.55469" y="16.2393" width="3.84127" height="3.84127" transform="rotate(-180 8.55469 16.2393)" fill="#131200"/>
<rect width="3.84127" height="3.84127" transform="matrix(1 0 0 -1 35.4414 16.2393)" fill="#131200"/>
</svg>
