<svg width="120" height="120" viewBox="0 0 120 120" fill="none" xmlns="http://www.w3.org/2000/svg">
<rect width="8" height="8" transform="matrix(-1 0 0 1 48 56)" fill="#131200"/>
<rect width="8" height="8" transform="matrix(-1 0 0 1 56 96)" fill="#131200"/>
<rect width="8" height="8" transform="matrix(-1 0 0 1 40 56)" fill="#131200"/>
<rect width="8" height="8" transform="matrix(-1 0 0 1 48 88)" fill="#131200"/>
<rect width="8" height="8" transform="matrix(-1 0 0 1 32 64)" fill="#131200"/>
<rect width="8" height="8" transform="matrix(-1 0 0 1 40 88)" fill="#131200"/>
<rect width="8" height="8" transform="matrix(-1 0 0 1 32 96)" fill="#131200"/>
<rect width="8" height="8" transform="matrix(-1 0 0 1 24 96)" fill="#131200"/>
<rect width="8" height="8" transform="matrix(-1 0 0 1 16 96)" fill="#131200"/>
<rect width="8" height="8" transform="matrix(-1 0 0 1 56 56)" fill="#131200"/>
<rect width="8" height="8" transform="matrix(-1 0 0 1 64 96)" fill="#131200"/>
<rect width="8" height="8" transform="matrix(-1 0 0 1 64 56)" fill="#131200"/>
<rect width="8" height="8" transform="matrix(-1 0 0 1 64 24)" fill="#131200"/>
<rect width="8" height="8" transform="matrix(-1 0 0 1 88 24)" fill="#131200"/>
<rect width="8" height="8" transform="matrix(-1 0 0 1 64 64)" fill="#131200"/>
<rect width="8" height="8" transform="matrix(-1 0 0 1 64 32)" fill="#131200"/>
<rect width="8" height="8" transform="matrix(-1 0 0 1 88 32)" fill="#131200"/>
<rect width="8" height="8" transform="matrix(-1 0 0 1 56 72)" fill="#131200"/>
<rect width="8" height="8" transform="matrix(-1 0 0 1 48 72)" fill="#131200"/>
<rect width="8" height="8" transform="matrix(-1 0 0 1 72 72)" fill="#131200"/>
<rect width="8" height="8" transform="matrix(-1 0 0 1 72 96)" fill="#131200"/>
<rect width="8" height="8" transform="matrix(-1 0 0 1 80 64)" fill="#131200"/>
<rect width="8" height="8" transform="matrix(-1 0 0 1 72 40)" fill="#131200"/>
<rect width="8" height="8" transform="matrix(-1 0 0 1 72 16)" fill="#131200"/>
<rect width="8" height="8" transform="matrix(-1 0 0 1 80 88)" fill="#131200"/>
<rect width="8" height="8" transform="matrix(-1 0 0 1 88 64)" fill="#131200"/>
<rect width="8" height="8" transform="matrix(-1 0 0 1 80 40)" fill="#131200"/>
<rect width="8" height="8" transform="matrix(-1 0 0 1 80 16)" fill="#131200"/>
<rect width="8" height="8" transform="matrix(-1 0 0 1 88 88)" fill="#131200"/>
<rect width="8" height="8" transform="matrix(-1 0 0 1 96 56)" fill="#131200"/>
<rect width="8" height="8" transform="matrix(-1 0 0 1 96 80)" fill="#131200"/>
<rect width="8" height="8" transform="matrix(-1 0 0 1 104 56)" fill="#131200"/>
<rect width="8" height="8" transform="matrix(-1 0 0 1 112 56)" fill="#131200"/>
<rect width="8" height="8" transform="matrix(-1 0 0 1 104 80)" fill="#131200"/>
<rect width="8" height="8" transform="matrix(-1 0 0 1 24 80)" fill="#131200"/>
<rect width="8" height="8" transform="matrix(-1 0 0 1 24 88)" fill="#131200"/>
<rect width="8" height="8" transform="matrix(-1 0 0 1 112 72)" fill="#131200"/>
<rect width="8" height="8" transform="matrix(-1 0 0 1 24 72)" fill="#131200"/>
<rect width="8" height="8" transform="matrix(-1 0 0 1 16 80)" fill="#131200"/>
<rect width="8" height="8" transform="matrix(-1 0 0 1 16 88)" fill="#131200"/>
<rect width="8" height="8" transform="matrix(-1 0 0 1 112 64)" fill="#131200"/>
<rect width="8" height="8" transform="matrix(-1 0 0 1 16 72)" fill="#131200"/>
</svg>
