<?xml version="1.0" encoding="utf-8"?>
<svg xmlns="http://www.w3.org/2000/svg" viewBox="0.679 0.113 59.827 59.86">
  <path d="M 20.992 32.405 C 22.659 32.405 24.011 31.174 24.011 29.655 C 24.011 28.136 22.659 26.905 20.992 26.905 C 19.325 26.905 17.973 28.136 17.973 29.655 C 17.973 31.174 19.325 32.405 20.992 32.405 Z" stroke="#A9E000" stroke-width="2.75" stroke-linecap="round" stroke-linejoin="round" style="fill-opacity: 0;"/>
  <path d="M 39.106 32.405 C 40.774 32.405 42.126 31.174 42.126 29.655 C 42.126 28.136 40.774 26.905 39.106 26.905 C 37.439 26.905 36.087 28.136 36.087 29.655 C 36.087 31.174 37.439 32.405 39.106 32.405 Z" stroke="#A9E000" stroke-width="2.75" stroke-linecap="round" stroke-linejoin="round" style="fill-opacity: 0;"/>
  <path d="M 16.463 17.28 C 27.03 14.53 33.068 14.53 43.635 17.28" stroke="#A9E000" stroke-width="2.75" stroke-linecap="round" stroke-linejoin="round" style="fill-opacity: 0;"/>
  <path d="M 14.954 42.03 C 25.521 44.78 34.578 44.78 45.145 42.03" stroke="#A9E000" stroke-width="2.75" stroke-linecap="round" stroke-linejoin="round" style="fill-opacity: 0;"/>
  <path d="M 40.616 43.405 C 40.616 46.155 45.145 51.655 46.654 51.655 C 51.183 51.655 55.207 47.071 57.221 43.405 C 59.235 38.821 58.73 27.364 52.692 11.78 C 48.294 8.989 43.635 8.095 39.106 7.655 L 36.087 14.53" stroke="#A9E000" stroke-width="2.75" stroke-linecap="round" stroke-linejoin="round" style="fill-opacity: 0;"/>
  <path d="M 19.483 43.405 C 19.483 46.155 15.389 51.655 13.952 51.655 C 9.638 51.655 5.806 47.071 3.889 43.405 C 1.972 38.821 2.452 27.364 8.2 11.78 C 12.391 8.989 16.6 8.095 20.992 7.655 L 24.011 14.53" stroke="#A9E000" stroke-width="2.75" stroke-linecap="round" stroke-linejoin="round" style="fill-opacity: 0;"/>
</svg>