<svg width="100" height="100" viewBox="0 0 100 100" fill="none" xmlns="http://www.w3.org/2000/svg">
<rect x="18" y="66" width="6" height="6" fill="#131200"/>
<rect x="42" y="54" width="6" height="6" fill="#131200"/>
<rect x="12" y="54" width="6" height="6" fill="#131200"/>
<rect x="24" y="72" width="6" height="6" fill="#131200"/>
<rect x="66" y="72" width="6" height="6" fill="#131200"/>
<rect x="66" y="60" width="6" height="6" fill="#131200"/>
<rect x="66" y="48" width="6" height="6" fill="#131200"/>
<rect x="24" y="60" width="6" height="6" fill="#131200"/>
<rect x="18" y="48" width="6" height="6" fill="#131200"/>
<rect x="24" y="36" width="6" height="6" fill="#131200"/>
<rect x="18" y="24" width="6" height="6" fill="#131200"/>
<rect x="24" y="30" width="6" height="6" fill="#131200"/>
<rect x="18" y="18" width="6" height="6" fill="#131200"/>
<rect x="30" y="24" width="6" height="6" fill="#131200"/>
<rect x="24" y="12" width="6" height="6" fill="#131200"/>
<rect x="18" y="72" width="6" height="6" fill="#131200"/>
<rect x="60" y="72" width="6" height="6" fill="#131200"/>
<rect x="60" y="60" width="6" height="6" fill="#131200"/>
<rect x="60" y="60" width="6" height="6" fill="#131200"/>
<rect x="60" y="48" width="6" height="6" fill="#131200"/>
<rect x="60" y="66" width="6" height="6" fill="#131200"/>
<rect x="60" y="54" width="6" height="6" fill="#131200"/>
<rect x="18" y="60" width="6" height="6" fill="#131200"/>
<rect x="12" y="60" width="6" height="6" fill="#131200"/>
<rect x="12" y="48" width="6" height="6" fill="#131200"/>
<rect x="18" y="36" width="6" height="6" fill="#131200"/>
<rect x="18" y="42" width="6" height="6" fill="#131200"/>
<rect x="24" y="24" width="6" height="6" fill="#131200"/>
<rect x="18" y="12" width="6" height="6" fill="#131200"/>
<rect x="30" y="72" width="6" height="6" fill="#131200"/>
<rect x="72" y="72" width="6" height="6" fill="#131200"/>
<rect x="72" y="60" width="6" height="6" fill="#131200"/>
<rect x="72" y="48" width="6" height="6" fill="#131200"/>
<rect x="30" y="60" width="6" height="6" fill="#131200"/>
<rect x="24" y="48" width="6" height="6" fill="#131200"/>
<rect x="30" y="36" width="6" height="6" fill="#131200"/>
<rect x="36" y="24" width="6" height="6" fill="#131200"/>
<rect x="30" y="12" width="6" height="6" fill="#131200"/>
<rect x="36" y="72" width="6" height="6" fill="#131200"/>
<rect x="78" y="72" width="6" height="6" fill="#131200"/>
<rect x="78" y="60" width="6" height="6" fill="#131200"/>
<rect x="78" y="48" width="6" height="6" fill="#131200"/>
<rect x="42" y="72" width="6" height="6" fill="#131200"/>
<rect x="84" y="72" width="6" height="6" fill="#131200"/>
<rect x="84" y="60" width="6" height="6" fill="#131200"/>
<rect x="84" y="48" width="6" height="6" fill="#131200"/>
<rect x="36" y="60" width="6" height="6" fill="#131200"/>
<rect x="30" y="48" width="6" height="6" fill="#131200"/>
<rect x="36" y="36" width="6" height="6" fill="#131200"/>
<rect x="42" y="24" width="6" height="6" fill="#131200"/>
<rect x="36" y="12" width="6" height="6" fill="#131200"/>
<rect x="48" y="66" width="6" height="6" fill="#131200"/>
<rect x="90" y="66" width="6" height="6" fill="#131200"/>
<rect x="90" y="54" width="6" height="6" fill="#131200"/>
<rect x="48" y="72" width="6" height="6" fill="#131200"/>
<rect x="90" y="72" width="6" height="6" fill="#131200"/>
<rect x="90" y="60" width="6" height="6" fill="#131200"/>
<rect x="90" y="48" width="6" height="6" fill="#131200"/>
<rect x="42" y="60" width="6" height="6" fill="#131200"/>
<rect x="48" y="60" width="6" height="6" fill="#131200"/>
<rect x="36" y="48" width="6" height="6" fill="#131200"/>
<rect x="42" y="48" width="6" height="6" fill="#131200"/>
<rect x="48" y="42" width="6" height="6" fill="#131200"/>
<rect x="48" y="48" width="6" height="6" fill="#131200"/>
<rect x="48" y="36" width="6" height="6" fill="#131200"/>
<rect x="54" y="30" width="6" height="6" fill="#131200"/>
<rect x="54" y="36" width="6" height="6" fill="#131200"/>
<rect x="42" y="36" width="6" height="6" fill="#131200"/>
<rect x="48" y="24" width="6" height="6" fill="#131200"/>
<rect x="48" y="18" width="6" height="6" fill="#131200"/>
<rect x="42" y="12" width="6" height="6" fill="#131200"/>
<rect x="54" y="24" width="6" height="6" fill="#131200"/>
<rect x="48" y="12" width="6" height="6" fill="#131200"/>
</svg>
