<svg width="120" height="120" viewBox="0 0 120 120" fill="none" xmlns="http://www.w3.org/2000/svg">
<path fill-rule="evenodd" clip-rule="evenodd" d="M60.0009 9.99902H50.001V19.999H60.0009H60.001H70.0009V9.99902H60.001H60.0009ZM40.001 20H50.001V30H40.001V20ZM40.0009 29.998H30.0009V39.998H40.0009V29.998ZM30.001 39.999H20.001V49.999H30.001V39.999ZM80.001 20H70.001V30H80.001V39.998H90.001V29.998H80.001V20ZM100.001 39.999H90.0009V49.999H100.001V39.999ZM100.001 50H110.001V60H100.001V50ZM100.001 59.998H90.0009V69.998H100.001V59.998ZM90.0009 69.999H100.001V79.999H90.0009V69.999ZM100.001 80H90.0009V89.998H80.001H70.001V99.998H80.001H90.0009H90.001H100.001V90V89.998V80ZM20.001 80H30.001V89.998H40.0009V99.998H30.001H30.0009H20.001V90V89.998V80ZM50.001 89.998H60.0009H60.001H70.0009V99.998H60.001H60.0009H50.001H40.001V89.998H50.001ZM20.001 50H10.001V60H20.001V69.998H30.001V59.998H20.001V50ZM20.001 69.999H30.001V79.999H20.001V69.999Z" fill="#131200"/>
</svg>
