<svg width="121" height="120" viewBox="0 0 121 120" fill="none" xmlns="http://www.w3.org/2000/svg">
<path fill-rule="evenodd" clip-rule="evenodd" d="M60.5009 9.99902H50.501V19.999H60.5009H60.501H70.5009V9.99902H60.501H60.5009ZM50.501 20H40.501V29.998V30V39.998H50.501H60.5009H60.501H70.5009V30V29.998V20H60.501H60.5009H50.501ZM30.5009 29.998H40.5009V39.998H30.5009V29.998ZM30.5009 39.999H20.501V49.999H30.5009H30.501H40.5009V39.999H30.501H30.5009ZM30.501 50H40.5009V59.998V60V69.998H30.501H30.5009H20.501V60H10.501V50H20.501H30.5009H30.501ZM30.501 69.999H40.5009V79.999H30.501H30.5009H20.501V69.999H30.5009H30.501ZM40.5009 80H30.501H30.5009H20.501V89.998V90V99.998H30.5009H30.501H40.5009V90V89.998V80ZM40.5009 39.999H50.5009V49.999H40.5009V39.999ZM50.501 50H40.501V59.998V60V69.998H50.501H60.5009H60.501H70.5009V60V59.998V50H60.501H60.5009H50.501ZM50.5009 69.999H40.5009V79.999H50.5009V69.999ZM40.501 80H50.501H60.5009H60.501H70.5009V89.998V90V99.998H60.501H60.5009H50.501H40.501V90V89.998V80ZM50.501 39.999H60.5009H60.501H70.5009V49.999H60.501H60.5009H50.501V39.999ZM60.5009 69.999H50.501V79.999H60.5009H60.501H70.5009V69.999H60.501H60.5009ZM80.501 20H70.501V29.998V30V39.998H80.501H90.501V29.998H80.501V20ZM80.5009 39.999H70.5009V49.999H80.5009V39.999ZM70.501 50H80.501H90.5009H90.501H100.501V59.998V60V69.998H90.501H90.5009H80.501H70.501V60V59.998V50ZM70.5009 69.999H80.5009V79.999H70.5009V69.999ZM80.501 80H70.501V89.998V90V99.998H80.501H90.5009H90.501H100.501V90V89.998V80H90.501H90.5009H80.501ZM90.501 39.999H100.501V49.999H90.501H90.5009H80.501V39.999H90.5009H90.501ZM80.501 69.999H90.5009H90.501H100.501V79.999H90.501H90.5009H80.501V69.999ZM100.501 50H110.501V60H100.501V50Z" fill="#131200"/>
</svg>
