<svg width="120" height="120" viewBox="0 0 120 120" fill="none" xmlns="http://www.w3.org/2000/svg">
<rect x="72" y="40" width="8" height="8" fill="#131200"/>
<rect x="80" y="48" width="8" height="8" fill="#131200"/>
<rect x="72" y="64" width="8" height="8" fill="#131200"/>
<rect x="64" y="64" width="8" height="8" fill="#131200"/>
<rect x="72" y="56" width="8" height="8" fill="#131200"/>
<rect x="64" y="56" width="8" height="8" fill="#131200"/>
<rect x="16" y="64" width="8" height="8" fill="#131200"/>
<rect x="24" y="64" width="8" height="8" fill="#131200"/>
<rect x="32" y="64" width="8" height="8" fill="#131200"/>
<rect x="40" y="64" width="8" height="8" fill="#131200"/>
<rect x="72" y="72" width="8" height="8" fill="#131200"/>
<rect x="64" y="72" width="8" height="8" fill="#131200"/>
<rect x="16" y="72" width="8" height="8" fill="#131200"/>
<rect x="24" y="72" width="8" height="8" fill="#131200"/>
<rect x="32" y="72" width="8" height="8" fill="#131200"/>
<rect x="40" y="72" width="8" height="8" fill="#131200"/>
<rect x="48" y="72" width="8" height="8" fill="#131200"/>
<rect x="56" y="72" width="8" height="8" fill="#131200"/>
<rect x="72" y="80" width="8" height="8" fill="#131200"/>
<rect x="64" y="80" width="8" height="8" fill="#131200"/>
<rect x="16" y="80" width="8" height="8" fill="#131200"/>
<rect x="24" y="80" width="8" height="8" fill="#131200"/>
<rect x="32" y="80" width="8" height="8" fill="#131200"/>
<rect x="40" y="80" width="8" height="8" fill="#131200"/>
<rect x="48" y="80" width="8" height="8" fill="#131200"/>
<rect x="56" y="80" width="8" height="8" fill="#131200"/>
<rect x="64" y="88" width="8" height="8" fill="#131200"/>
<rect x="24" y="88" width="8" height="8" fill="#131200"/>
<rect x="56" y="96" width="8" height="8" fill="#131200"/>
<rect x="40" y="40" width="8" height="8" fill="#131200"/>
<rect x="40" y="48" width="8" height="8" fill="#131200"/>
<rect x="40" y="88" width="8" height="8" fill="#131200"/>
<rect x="48" y="88" width="8" height="8" fill="#131200"/>
<rect x="56" y="88" width="8" height="8" fill="#131200"/>
<rect x="88" y="56" width="8" height="8" fill="#131200"/>
<rect x="96" y="64" width="8" height="8" fill="#131200"/>
<rect x="104" y="72" width="8" height="8" fill="#131200"/>
<rect x="64" y="32" width="8" height="8" fill="#131200"/>
<rect x="56" y="24" width="8" height="8" fill="#131200"/>
<rect x="96" y="16" width="8" height="8" fill="#131200"/>
<rect x="48" y="96" width="8" height="8" fill="#131200"/>
<rect x="32" y="40" width="8" height="8" fill="#131200"/>
<rect x="32" y="48" width="8" height="8" fill="#131200"/>
<rect x="32" y="88" width="8" height="8" fill="#131200"/>
<rect x="64" y="48" width="8" height="8" fill="#131200"/>
<rect x="48" y="40" width="8" height="8" fill="#131200"/>
<rect x="56" y="40" width="8" height="8" fill="#131200"/>
<rect x="64" y="40" width="8" height="8" fill="#131200"/>
<rect x="72" y="32" width="8" height="8" fill="#131200"/>
<rect x="80" y="24" width="8" height="8" fill="#131200"/>
<rect x="56" y="48" width="8" height="8" fill="#131200"/>
<rect x="88" y="24" width="8" height="8" fill="#131200"/>
<rect x="80" y="16" width="8" height="8" fill="#131200"/>
<rect x="32" y="96" width="8" height="8" fill="#131200"/>
<rect x="16" y="56" width="8" height="8" fill="#131200"/>
<rect x="24" y="56" width="8" height="8" fill="#131200"/>
<rect x="32" y="56" width="8" height="8" fill="#131200"/>
<rect x="40" y="56" width="8" height="8" fill="#131200"/>
<rect x="88" y="16" width="8" height="8" fill="#131200"/>
<rect x="40" y="96" width="8" height="8" fill="#131200"/>
<rect x="24" y="48" width="8" height="8" fill="#131200"/>
<rect x="56" y="56" width="8" height="8" fill="#131200"/>
<rect x="48" y="48" width="8" height="8" fill="#131200"/>
<rect x="48" y="56" width="8" height="8" fill="#131200"/>
<rect x="48" y="64" width="8" height="8" fill="#131200"/>
<rect x="56" y="64" width="8" height="8" fill="#131200"/>
<rect x="80" y="32" width="8" height="8" fill="#131200"/>
<rect x="72" y="24" width="8" height="8" fill="#131200"/>
</svg>
