<?xml version="1.0" encoding="utf-8"?>
<svg xmlns="http://www.w3.org/2000/svg" viewBox="0.679 0.113 59.827 59.86">
  <rect x="25.93" y="12.923" width="6.482" height="6.462" transform="matrix(0, 1, -1, 0, 33.911575, -25.148991)" fill="#A9E000" style=""/>
  <rect x="19.449" y="19.385" width="6.482" height="6.462" transform="matrix(0, 1, -1, 0, 33.912743, -12.184812)" fill="#A9E000" style=""/>
  <rect x="12.966" y="25.846" width="6.482" height="6.462" transform="matrix(0, 1, -1, 0, 33.913902, 0.779372)" fill="#A9E000" style=""/>
  <rect x="58.345" y="25.846" width="6.482" height="6.462" transform="matrix(0, 1, -1, 0, 79.143303, -44.598183)" fill="#A9E000" style=""/>
  <rect x="12.966" y="32.308" width="6.482" height="6.462" transform="matrix(0, 1, -1, 0, 40.375412, 7.262047)" fill="#A9E000" style=""/>
  <rect x="58.345" y="32.308" width="6.482" height="6.462" transform="matrix(0, 1, -1, 0, 85.604805, -38.115509)" fill="#A9E000" style=""/>
  <rect x="12.966" y="38.769" width="6.482" height="6.462" transform="matrix(0, 1, -1, 0, 46.836918, 13.744722)" fill="#A9E000" style=""/>
  <rect x="58.345" y="38.769" width="6.482" height="6.462" transform="matrix(0, 1, -1, 0, 92.066315, -31.632833)" fill="#A9E000" style=""/>
  <rect x="45.377" y="32.308" width="6.482" height="6.462" transform="matrix(0, 1, -1, 0, 72.680626, -25.148991)" fill="#A9E000" style=""/>
  <rect x="45.377" y="38.769" width="6.482" height="6.462" transform="matrix(0, 1, -1, 0, 79.142136, -18.666319)" fill="#A9E000" style=""/>
  <rect x="12.966" y="45.231" width="6.482" height="6.462" transform="matrix(0, 1, -1, 0, 53.298428, 20.227398)" fill="#A9E000" style=""/>
  <rect x="58.345" y="45.231" width="6.482" height="6.462" transform="matrix(0, 1, -1, 0, 98.527824, -25.150158)" fill="#A9E000" style=""/>
  <rect x="38.896" y="45.231" width="6.482" height="6.462" transform="matrix(0, 1, -1, 0, 79.143303, -5.702134)" fill="#A9E000" style=""/>
  <rect x="64.826" y="64.615" width="6.482" height="6.462" transform="matrix(0, 1, -1, 0, 124.372696, -12.183644)" fill="#A9E000" style=""/>
  <rect x="58.345" y="58.154" width="6.482" height="6.462" transform="matrix(0, 1, -1, 0, 111.450844, -12.184812)" fill="#A9E000" style=""/>
  <rect x="19.449" y="51.692" width="6.482" height="6.462" transform="matrix(0, 1, -1, 0, 66.220291, 20.228563)" fill="#A9E000" style=""/>
  <rect x="51.862" y="51.692" width="6.482" height="6.462" transform="matrix(0, 1, -1, 0, 98.528992, -12.185979)" fill="#A9E000" style=""/>
  <rect x="51.862" y="19.385" width="6.482" height="6.462" transform="matrix(0, 1, -1, 0, 66.221443, -44.59935)" fill="#A9E000" style=""/>
  <rect x="25.93" y="58.154" width="6.482" height="6.462" transform="matrix(0, 1, -1, 0, 79.142136, 20.229733)" fill="#A9E000" style=""/>
  <rect x="32.415" y="12.923" width="6.482" height="6.462" transform="matrix(0, 1, -1, 0, 40.375412, -31.634001)" fill="#A9E000" style=""/>
  <rect x="32.415" y="58.154" width="6.482" height="6.462" transform="matrix(0, 1, -1, 0, 85.605965, 13.744722)" fill="#A9E000" style=""/>
  <rect x="38.896" y="12.923" width="6.482" height="6.462" transform="matrix(0, 1, -1, 0, 46.835758, -38.115509)" fill="#A9E000" style=""/>
  <rect x="38.896" y="58.154" width="6.482" height="6.462" transform="matrix(0, 1, -1, 0, 92.066315, 7.263215)" fill="#A9E000" style=""/>
  <rect x="45.377" y="12.923" width="6.482" height="6.462" transform="matrix(0, 1, -1, 0, 53.296101, -44.597015)" fill="#A9E000" style=""/>
  <rect x="45.377" y="58.154" width="6.482" height="6.462" transform="matrix(0, 1, -1, 0, 98.526665, 0.781706)" fill="#A9E000" style=""/>
</svg>