<?xml version="1.0" encoding="utf-8"?>
<svg xmlns="http://www.w3.org/2000/svg" viewBox="0.679 0.113 59.827 59.86">
  <path d="M 57.193 0.879 L 36.046 25.294 L 36.017 25.327 L 36.043 25.364 L 59.917 59.479 L 42.57 59.479 L 26.454 36.449 L 26.423 36.404 L 26.388 36.445 L 6.438 59.479 L 1.433 59.479 L 24.157 33.243 L 24.186 33.209 L 24.16 33.172 L 1.56 0.879 L 18.909 0.879 L 33.751 22.086 L 33.781 22.132 L 33.817 22.092 L 52.188 0.879 L 57.193 0.879 Z M 9.013 4.814 L 8.919 4.814 L 8.979 4.899 L 44.407 55.525 L 44.42 55.544 L 44.442 55.544 L 52.465 55.544 L 52.559 55.544 L 52.499 55.459 L 17.071 4.832 L 17.057 4.814 L 17.036 4.814 L 9.013 4.814 Z" fill="#A9E000" stroke="#A9E000" stroke-width="0.0788912" style=""/>
</svg>